<svg width="151" height="32" viewBox="0 0 151 32" fill="none" xmlns="http://www.w3.org/2000/svg">
<g clip-path="url(#clip0)">
<path d="M78.4962 14.1926C78.4962 24.076 85.6149 32.0242 94.3925 32.0242C103.17 32.0242 110.289 24.0069 110.289 14.1926H78.2888" fill="#303030"/>
<path d="M109.943 0.0241699H78.2888V9.07817H109.943V0.0241699Z" fill="#303030"/>
<path d="M150.6 32H118.6L134.635 0L150.462 32" fill="#303030"/>
<path d="M55.0841 32.0691C63.9398 32.0691 71.1187 24.8902 71.1187 16.0346C71.1187 7.17892 63.9398 0 55.0841 0C46.2285 0 39.0496 7.17892 39.0496 16.0346C39.0496 24.8902 46.2285 32.0691 55.0841 32.0691Z" fill="#303030"/>
<path d="M16.0346 32.0691C24.8902 32.0691 32.0691 24.8902 32.0691 16.0346C32.0691 7.17892 24.8902 0 16.0346 0C7.17892 0 0 7.17892 0 16.0346C0 24.8902 7.17892 32.0691 16.0346 32.0691Z" fill="#303030"/>
</g>
<defs>
<clipPath id="clip0">
<rect width="150.6" height="32" fill="white"/>
</clipPath>
</defs>
</svg>
